
<svg  viewBox="0 100 550 270" height= "769px"><g fill="#552"  stroke="none" strokeWidth="1" strokeLinecap="butt" strokeLinejoin="miter"  strokeDasharray="" strokeDashoffset="0"  style="mix-blend-mode: normal"><g dataPaperData="{&quot;isGlobalGroup&quot;:true,&quot;bounds&quot;:{&quot;x&quot;:64.99999999999999,&quot;y&quot;:193.51459768213599,&quot;width&quot;:420,&quot;height&quot;:82.97080463572806}}"><g data-paper-data="{&quot;isPrimaryText&quot;:true}"  id="element-id-69763"><path d="M207.88829,234.85776l-19.91382,-11.37935c-7.96555,-4.55169 -6.82761,-11.66378 1.99139,-13.93965c8.81895,-2.56035 18.77588,3.41381 19.34485,17.35346h0.56897l3.12932,-18.4914h-0.56897c0,1.99139 -1.99139,3.41381 -3.98277,2.56035c-4.26726,-1.7069 -14.50867,-4.83622 -21.62072,-0.85345c-11.94832,6.25864 -11.94832,18.20691 -0.56897,24.75004l19.91382,11.37935c7.96555,4.55169 6.82761,11.66378 -1.99139,14.22414c-8.819,2.56035 -22.18969,-3.41381 -22.75865,-17.35346h-0.56897l-3.12932,18.4914h0.56897c0,-1.99139 1.99139,-3.41381 3.98277,-2.56035c4.26726,1.7069 17.63794,4.83622 25.03452,0.85345c11.66378,-6.25864 11.94827,-18.20691 0.56897,-25.03452z" data-paper-data="{&quot;glyphName&quot;:&quot;S&quot;,&quot;glyphIndex&quot;:0,&quot;firstGlyphOfWord&quot;:true,&quot;word&quot;:1}" id="element-id-34184"></path><path d="M249.51245,237.15069c-9.14045,-3.22604 -15.05485,-3.76371 -31.72273,1.07535c18.81857,-2.68837 30.10971,3.22604 36.02412,10.21579l0.53767,1.61302c0.74198,2.22599 1.93562,5.37673 3.22604,8.81784c0.27031,0.72082 0.1613,1.12911 -0.53767,1.61302c-0.69898,0.43014 -0.75274,0.59144 -1.61302,0.53767v0.53767h16.1302v-0.53767c-1.61302,0 -3.22604,-1.82809 -3.76371,-3.44111l-18.28089,-49.46595h-10.21579c3.22604,9.67812 6.98975,19.35624 10.21579,29.03436zM234.4576,261.02339c-2.15069,0 -3.4911,-0.86374 -4.30139,-2.15069c-0.91404,-1.45172 -1.07535,-5.05413 0,-7.20482h-0.53767c-1.07535,2.68837 -2.36576,4.19385 -4.30139,5.91441c-1.70496,1.51551 -3.76371,3.44111 -6.45208,3.44111v0.53767h15.59253z" data-paper-data="{&quot;glyphName&quot;:&quot;A&quot;,&quot;glyphIndex&quot;:1,&quot;word&quot;:1}" id="element-id-47080"></path><path d="M310.55366,208.76154c3.66663,0 6.05786,3.82604 4.46369,7.01443l-1.27535,2.86952h0.6377l1.11588,-2.7101c2.07246,-4.30433 6.37679,-7.17384 11.1593,-7.17384v-0.47824h-16.10122zM285.52502,218.64549l-3.34775,-7.49267c-0.47824,-1.11593 0.31882,-2.39128 1.43476,-2.39128v-0.47824h-16.10122v0.47824c1.75358,0 3.18834,1.11593 3.98545,2.55069l3.18839,7.33326l19.60838,43.20227h0.47824l5.10139,-11.31865l4.30433,-9.2463h-0.63775l-0.95647,2.39133c-1.11593,2.39128 -4.6231,2.39128 -5.73903,0z" data-paper-data="{&quot;glyphName&quot;:&quot;V&quot;,&quot;glyphIndex&quot;:2,&quot;word&quot;:1}" id="element-id-93466"></path><path d="M357.96117,237.15069c-9.14045,-3.22604 -15.05485,-3.76371 -31.72273,1.07535c18.81857,-2.68837 30.10971,3.22604 36.02412,10.21579l0.53767,1.61302c0.74198,2.22599 1.93562,5.37673 3.22604,8.81784c0.27031,0.72082 0.1613,1.12911 -0.53767,1.61302c-0.69898,0.43014 -0.75274,0.59144 -1.61302,0.53767v0.53767h16.1302v-0.53767c-1.61302,0 -3.22604,-1.82809 -3.76371,-3.44111l-18.28089,-49.46595h-10.21579c3.22604,9.67812 6.98975,19.35624 10.21579,29.03436zM342.90632,261.02339c-2.15069,0 -3.4911,-0.86374 -4.30139,-2.15069c-0.91404,-1.45172 -1.07535,-5.05413 0,-7.20482h-0.53767c-1.07535,2.68837 -2.36576,4.19385 -4.30139,5.91441c-1.70496,1.51551 -3.76371,3.44111 -6.45208,3.44111v0.53767h15.59253z" data-paper-data="{&quot;glyphName&quot;:&quot;A&quot;,&quot;glyphIndex&quot;:3,&quot;word&quot;:1}" id="element-id-17185"></path><path d="M391.11546,258.52321c0,0.84011 -0.35621,1.156 -0.84011,1.68023c-0.96114,1.04122 -1.26017,0.84011 -2.10029,0.84011v0.84011h16.38224v-0.84011c-0.84011,0 -1.75416,0.14114 -2.29183,-0.50407c-0.70543,-0.84652 -0.64857,-1.17616 -0.64857,-2.01628v-18.06246c6.72092,0 11.34155,10.92149 13.86189,17.22235c0.42006,1.68023 -0.84011,3.36046 -2.9404,3.36046v0.84011h21.84298v-0.84011c-1.68023,0 -2.9404,-0.42006 -4.20057,-1.26017c-0.84011,-0.42006 -1.26017,-0.84011 -1.68023,-1.68023l-9.24126,-13.02178c-2.10029,-2.9404 -5.8808,-4.62063 -9.66132,-4.62063h2.9404c8.8212,0 15.96218,-7.56103 15.96218,-16.38224c0,-8.8212 -7.14097,-15.96218 -15.96218,-15.96218h-9.24126h-7.14097h-7.56103c-2.9404,0 -5.04069,2.10029 -5.04069,5.04069c0,2.52034 2.10029,4.62063 5.04069,4.62063c2.52034,0 4.62063,-2.10029 4.62063,-4.62063c0,-2.10029 -0.84011,-3.78052 -2.52034,-4.62063h2.10029h5.04069h3.78052l-10.50143,13.44183zM401.61689,208.53639h1.26017h1.26017c7.56103,1.68023 13.86189,7.98109 13.86189,15.54212c0,8.8212 -7.56103,15.54212 -16.38224,15.54212z" data-paper-data="{&quot;glyphName&quot;:&quot;R&quot;,&quot;glyphIndex&quot;:4,&quot;word&quot;:1}" id="element-id-94824"></path><path d="M483.40037,220.96672zM439.41869,208.11633l1.30234,13.39531h0.55815c-0.74418,-6.88369 4.65114,-12.83716 11.53483,-12.83716h4.09304v49.86033c0,1.48837 -1.30234,2.7907 -2.7907,2.7907v0.55815h16.18602v-0.55815c-1.48837,0 -2.60467,-1.30234 -2.60467,-2.7907v-49.86033h3.90701c6.88369,0 12.27901,5.95347 11.53483,12.83716h0.55815v-0.74418l0.18603,-1.86043l1.1163,-10.7907z" data-paper-data="{&quot;glyphName&quot;:&quot;T&quot;,&quot;glyphIndex&quot;:5,&quot;lastGlyphOfWord&quot;:true,&quot;word&quot;:1}" id="element-id-7448"></path></g><g data-paper-data="{&quot;fillRule&quot;:&quot;evenodd&quot;,&quot;fillRuleOriginal&quot;:&quot;evenodd&quot;,&quot;isIcon&quot;:true,&quot;iconStyle&quot;:&quot;standalone&quot;,&quot;selectedEffects&quot;:{&quot;container&quot;:&quot;enclosed_circle_outline2&quot;,&quot;transformation&quot;:&quot;&quot;,&quot;pattern&quot;:&quot;&quot;},&quot;bounds&quot;:{&quot;x&quot;:64.99999999999999,&quot;y&quot;:193.51459768213599,&quot;width&quot;:78.64434166875684,&quot;height&quot;:82.97080463572806},&quot;widthRatioIconToContainer&quot;:1,&quot;heightRatioIconToContainer&quot;:1,&quot;relativeBoundsIconToContainer&quot;:{&quot;top&quot;:0,&quot;left&quot;:0},&quot;iconType&quot;:&quot;icon&quot;,&quot;rawIconId&quot;:&quot;4024444&quot;,&quot;isDetailed&quot;:false,&quot;blockLetter&quot;:&quot;O&quot;,&quot;blockLetterId&quot;:0,&quot;suitableAsStandaloneIcon&quot;:true}" fill-rule="evenodd" id="element-id-76828"><path d="M105.69296,233.65267c0,0 0,0.00001 0,0.00001c0,0 0,-0.00001 0,-0.00001zM120.51513,258.82029c0.61418,0.41178 0.77746,1.24153 0.36627,1.85592c-0.25809,0.38543 -0.68105,0.59462 -1.11239,0.59462c-0.25649,0 -0.51458,-0.07525 -0.74332,-0.22875c-7.12385,-4.77991 -11.13629,-10.49017 -13.36726,-15.77887v29.88265c0,0.73833 -0.59961,1.33954 -1.33794,1.33954c-0.73833,0 -1.33794,-0.60121 -1.33794,-1.33954v-29.80062c-2.24035,5.27452 -6.26116,10.92989 -13.36247,15.69663c-0.23034,0.1537 -0.48843,0.22875 -0.74492,0.22875c-0.43115,0 -0.8543,-0.20919 -1.11239,-0.59462c-0.41158,-0.61418 -0.24831,-1.44413 0.36428,-1.85571c11.96105,-8.02626 14.48743,-18.72781 14.81678,-25.09676c-1.92378,4.01323 -5.14838,8.21269 -10.49117,11.79977c-0.23034,0.1537 -0.48843,0.22875 -0.74492,0.22875c-0.43115,0 -0.8543,-0.20919 -1.11239,-0.59462c-0.41158,-0.61418 -0.24831,-1.44413 0.36428,-1.85571c10.31431,-6.92305 11.96085,-16.30283 12.02293,-21.27535v-0.70021c-1.73296,3.39406 -4.53859,6.90389 -9.03845,9.92329c-0.22875,0.1537 -0.48683,0.22875 -0.74332,0.22875c-0.43115,0 -0.8543,-0.20919 -1.11239,-0.59462c-0.41178,-0.61418 -0.24831,-1.44413 0.36587,-1.85571c9.03346,-6.06356 10.4726,-14.27066 10.5281,-18.62561v-1.47287c-1.54273,2.79644 -3.93578,5.64998 -7.62865,8.12786c-0.22875,0.1537 -0.48683,0.22875 -0.74332,0.22875c-0.43115,0 -0.8543,-0.20919 -1.11239,-0.59462c-0.41178,-0.61418 -0.24831,-1.44413 0.36587,-1.85571c7.82466,-5.25017 9.07118,-12.35946 9.11849,-16.12638v-3.85514c0,-0.73833 0.59961,-1.33954 1.33794,-1.33954c0.73833,0 1.33794,0.60121 1.33794,1.33954v2.77529c0.00998,0.07425 0.01557,0.1499 0.01297,0.22715c-0.13713,3.96632 0.86408,11.44467 9.11031,16.97908c0.61418,0.41158 0.77746,1.24153 0.36587,1.85571c-0.25809,0.38543 -0.68105,0.59462 -1.11239,0.59462c-0.25649,0 -0.51458,-0.07525 -0.74332,-0.22875c-3.70085,-2.48347 -6.0945,-5.35896 -7.63364,-8.16658v0.28723c0.01158,0.07864 0.01756,0.15888 0.01477,0.24092c-0.15689,4.5805 0.99962,13.22194 10.51672,19.60906c0.61418,0.41158 0.77746,1.24153 0.36587,1.85571c-0.25809,0.38543 -0.68105,0.59462 -1.11239,0.59462c-0.25649,0 -0.51458,-0.07525 -0.74332,-0.22875c-4.50565,-3.0226 -7.30689,-6.55698 -9.03526,-9.96062c-0.0996,5.32522 1.41678,14.89422 12.02153,22.01288c0.61258,0.41158 0.77586,1.24153 0.36428,1.85571c-0.25809,0.38543 -0.68105,0.59462 -1.11239,0.59462c-0.25649,0 -0.51458,-0.07525 -0.74492,-0.22875c-5.36215,-3.59925 -8.58295,-7.83982 -10.49994,-11.87062c0.31119,6.79111 2.97809,17.2178 14.82217,25.16761zM77.55484,239.40584c0.68804,3.91702 2.83437,8.8612 8.7113,12.80517c0.61418,0.41158 0.77766,1.24153 0.36547,1.85571c-0.25809,0.38543 -0.68105,0.59462 -1.11239,0.59462c-0.25649,0 -0.51458,-0.07525 -0.74332,-0.22875c-3.63019,-2.43556 -5.98751,-5.25277 -7.50948,-8.0077v16.34195c0,0.73833 -0.59961,1.33954 -1.33794,1.33954c-0.73833,0 -1.33794,-0.60121 -1.33794,-1.33954v-16.31041c-1.52497,2.74595 -3.88229,5.54459 -7.50609,7.97616c-0.23034,0.1537 -0.48843,0.22875 -0.74492,0.22875c-0.43115,0 -0.8543,-0.20919 -1.11239,-0.59462c-0.41158,-0.61418 -0.24831,-1.44413 0.36428,-1.85571c5.87573,-3.94377 7.99053,-8.94583 8.68715,-12.75068c-1.24692,1.85612 -2.99425,3.69805 -5.438,5.3376c-0.22875,0.1537 -0.48683,0.22875 -0.74332,0.22875c-0.43115,0 -0.8543,-0.20919 -1.11239,-0.59462c-0.41178,-0.61418 -0.24831,-1.44413 0.36587,-1.85571c5.23939,-3.51761 6.76377,-8.07975 7.13563,-11.21513c-1.10082,1.59284 -2.6206,3.1687 -4.71783,4.57651c-0.22875,0.1537 -0.48683,0.22875 -0.74332,0.22875c-0.43115,0 -0.8543,-0.20919 -1.11239,-0.59462c-0.41158,-0.61418 -0.24831,-1.44413 0.36428,-1.85571c4.85137,-3.25474 6.04919,-7.53603 6.27095,-10.26481c-0.94772,1.28126 -2.21301,2.53996 -3.90385,3.6751c-0.23034,0.1537 -0.48843,0.22875 -0.74492,0.22875c-0.43115,0 -0.8543,-0.20919 -1.11239,-0.59462c-0.41158,-0.61418 -0.24831,-1.44413 0.36428,-1.85571c4.66553,-3.13318 5.41046,-7.35759 5.43979,-9.59874v-2.38506c0,-0.73833 0.59961,-1.33954 1.33794,-1.33954c0.73833,0 1.33794,0.60121 1.33794,1.33954v1.69244c0.00639,0.06128 0.01018,0.12315 0.00819,0.18623c-0.08164,2.35552 0.51458,6.80209 5.43161,10.10513c0.61258,0.41158 0.77586,1.24473 0.36428,1.85571c-0.25809,0.38543 -0.68105,0.59462 -1.11239,0.59462c-0.25649,0 -0.51617,-0.07525 -0.74492,-0.22875c-1.69523,-1.13834 -2.96152,-2.40562 -3.90844,-3.69406c0.21657,2.87309 1.46429,7.05319 6.27713,10.28378c0.61258,0.41158 0.77586,1.24473 0.36428,1.85571c-0.25809,0.38543 -0.68105,0.59462 -1.11239,0.59462c-0.25649,0 -0.51458,-0.07525 -0.74492,-0.22875c-2.10502,-1.41379 -3.6256,-3.00263 -4.72542,-4.60585c0.36428,3.26631 1.92657,7.74242 7.14461,11.24447c0.61418,0.41158 0.77746,1.24153 0.36587,1.85571c-0.25809,0.38543 -0.68105,0.59462 -1.11239,0.59462c-0.25649,0 -0.51458,-0.07525 -0.74332,-0.22875c-2.46271,-1.65232 -4.21742,-3.51722 -5.46375,-5.39209zM134.33968,239.40305c0.68743,3.91742 2.83317,8.863 8.7117,12.80797c0.61418,0.41158 0.77766,1.24153 0.36567,1.85612c-0.25809,0.38543 -0.68105,0.59462 -1.11239,0.59462c-0.25649,0 -0.51458,-0.07525 -0.74332,-0.22875c-3.63019,-2.43556 -5.98751,-5.25277 -7.50948,-8.0077v16.34195c0,0.73833 -0.59961,1.33954 -1.33794,1.33954c-0.73833,0 -1.33794,-0.60121 -1.33794,-1.33954v-16.31041c-1.52497,2.74595 -3.88229,5.54459 -7.50609,7.97616c-0.23034,0.1537 -0.48843,0.22875 -0.74492,0.22875c-0.43115,0 -0.8543,-0.20919 -1.11239,-0.59462c-0.41158,-0.61418 -0.24831,-1.44413 0.36428,-1.85571c5.87573,-3.94377 7.99053,-8.94583 8.68715,-12.75068c-1.24692,1.85612 -2.99425,3.69805 -5.438,5.3376c-0.22875,0.1537 -0.48683,0.22875 -0.74332,0.22875c-0.43115,0 -0.8543,-0.20919 -1.11239,-0.59462c-0.41178,-0.61418 -0.24831,-1.44413 0.36587,-1.85571c5.23939,-3.51761 6.76377,-8.07975 7.13563,-11.21513c-1.10082,1.59284 -2.6206,3.1687 -4.71783,4.57651c-0.22875,0.1537 -0.48683,0.22875 -0.74332,0.22875c-0.43115,0 -0.8543,-0.20919 -1.11239,-0.59462c-0.41158,-0.61418 -0.24831,-1.44413 0.36428,-1.85571c4.85137,-3.25474 6.04919,-7.53603 6.27095,-10.26481c-0.94772,1.28126 -2.21301,2.53996 -3.90385,3.6751c-0.23034,0.1537 -0.48843,0.22875 -0.74492,0.22875c-0.43115,0 -0.8543,-0.20919 -1.11239,-0.59462c-0.41158,-0.61418 -0.24831,-1.44413 0.36428,-1.85571c4.66553,-3.13318 5.41046,-7.35759 5.43979,-9.59874v-2.38506c0,-0.73833 0.59961,-1.33954 1.33794,-1.33954c0.73853,0 1.33794,0.60121 1.33794,1.33954v1.69224c0.00639,0.06108 0.01018,0.12295 0.00819,0.18623c-0.08164,2.35552 0.51458,6.80209 5.43161,10.10513c0.61258,0.41158 0.77586,1.24473 0.36428,1.85571c-0.25809,0.38543 -0.68105,0.59462 -1.11239,0.59462c-0.25649,0 -0.51617,-0.07525 -0.74492,-0.22875c-1.69483,-1.13794 -2.96072,-2.40482 -3.90764,-3.69286c0.21797,2.87509 1.46728,7.05479 6.27614,10.28258c0.61258,0.41158 0.77586,1.24473 0.36428,1.85571c-0.25809,0.38543 -0.68105,0.59462 -1.11239,0.59462c-0.25649,0 -0.51458,-0.07525 -0.74492,-0.22875c-2.10442,-1.41319 -3.6248,-3.00164 -4.72442,-4.60485c0.36567,3.26691 1.92857,7.74422 7.14361,11.24347c0.61418,0.41158 0.77746,1.24153 0.36587,1.85571c-0.25809,0.38543 -0.68105,0.59462 -1.11239,0.59462c-0.25649,0 -0.51458,-0.07525 -0.74332,-0.22875c-2.46291,-1.65272 -4.21782,-3.51881 -5.46415,-5.39509zM76.44626,208.53545c3.63725,-3.63723 7.81415,-6.4533 12.53067,-8.44823c3.70543,-1.56726 7.54417,-2.53994 11.51621,-2.91802v0.70083l-0.00366,0.93818c-3.75043,0.37314 -7.3762,1.30013 -10.8773,2.78095c-4.46801,1.88982 -8.43114,4.54868 -11.88939,7.9766l-0.25542,-0.10447l-0.77724,-0.24966l-0.58058,-0.1127l-0.22616,0.01052c0.18539,-0.19281 0.37302,-0.38415 0.56288,-0.57401zM119.66752,200.08723c4.71651,1.99495 8.89341,4.81103 12.53071,8.44823c0.18863,0.18864 0.37505,0.37873 0.55926,0.57027l-0.45334,0.02108l-0.43533,0.07269l-0.56844,0.1664l-0.36681,0.2116c-3.46113,-3.43361 -7.42832,-6.09638 -11.90157,-7.98833c-3.41081,-1.44264 -6.93991,-2.35964 -10.58734,-2.75098l-0.12065,-1.65215c3.91061,0.38961 7.69177,1.35667 11.3435,2.90119zM140.64642,221.06613c0.34969,0.82682 0.66979,1.66027 0.96028,2.50036l-0.16164,-0.2045l-0.53913,-0.50545l-0.27963,-0.19309l-0.56385,-0.42425l-0.51724,-0.4389l-0.48194,-0.46396l-0.14529,-0.15964c-0.30011,-0.68138 -0.61842,-1.3508 -0.95494,-2.00827l-1.07596,-4.99466c1.47322,2.15278 2.72633,4.45023 3.75934,6.89238zM119.66752,272.73548c-3.73166,1.57842 -7.59849,2.55379 -11.60048,2.92611l0.0806,-0.51573v-1.13054c3.75293,-0.3727 7.38105,-1.29996 10.88436,-2.7818c3.66267,-1.54904 6.98606,-3.61491 9.97017,-6.1976l1.48756,0.84651l0.01181,0.00713c-3.22337,2.87244 -6.83471,5.15441 -10.83403,6.84591zM88.97694,272.73548c-4.0191,-1.69986 -7.64636,-3.99605 -10.88179,-6.88856l0.41384,-0.30978l0.28909,-0.2535l0.24658,-0.29481l0.18808,-0.31251c3.08863,2.7512 6.54845,4.93693 10.37944,6.55722c3.50234,1.48143 7.12945,2.40859 10.88132,2.78149v1.13085l0.03389,0.40885l0.01726,0.10382c-3.99032,-0.37458 -7.84623,-1.34894 -11.56772,-2.92306zM67.99804,221.06613c1.11254,-2.63034 2.48046,-5.09283 4.10376,-7.38748v1.57158l-0.02546,0.56646l-0.07362,0.65081l-4.88302,6.86427c0.26843,-0.76067 0.56121,-1.51588 0.87833,-2.26563z" data-paper-data="{&quot;isPathIcon&quot;:true}" id="element-id-80134"></path></g></g></g><rect data-element-id="element-id-69763" stroke-width="2" fill="transparent" class="invisible-element-box grouping-element" x="178" y="208" width="307" height="54" data-element-name="isPrimaryText"></rect><rect data-element-id="element-id-76828" stroke-width="2" fill="transparent" class="invisible-element-box grouping-element" x="65" y="194" width="79" height="83" data-element-name="isIcon"></rect><rect data-element-id="element-id-80134" stroke-width="2" fill="transparent" class="invisible-element-box individual-element" x="65" y="194" width="79" height="83"></rect><rect data-element-id="element-id-93466" stroke-width="2" fill="transparent" class="invisible-element-box individual-element" x="268" y="208" width="59" height="54"></rect><rect data-element-id="element-id-47080" stroke-width="2" fill="transparent" class="invisible-element-box individual-element" x="218" y="208" width="54" height="53"></rect><rect data-element-id="element-id-17185" stroke-width="2" fill="transparent" class="invisible-element-box individual-element" x="326" y="208" width="54" height="53"></rect><rect data-element-id="element-id-94824" stroke-width="2" fill="transparent" class="invisible-element-box individual-element" x="384" y="208" width="51" height="54"></rect><rect data-element-id="element-id-7448" stroke-width="2" fill="transparent" class="invisible-element-box individual-element" x="439" y="208" width="46" height="54"></rect><rect data-element-id="element-id-34184" stroke-width="2" fill="transparent" class="invisible-element-box individual-element" x="178" y="208" width="39" height="54"></rect></svg>